<svg xmlns="http://www.w3.org/2000/svg" viewBox="0 0 1000 700" role="img" aria-label="Консольные стеллажи для труб и профиля">
  <defs><linearGradient id="b" x1="0" x2="1" y1="0" y2="1"><stop stop-color="#20262e"/><stop offset="1" stop-color="#596370"/></linearGradient><linearGradient id="m" x1="0" x2="1"><stop stop-color="#eff2f5"/><stop offset=".5" stop-color="#7d8894"/><stop offset="1" stop-color="#cdd4db"/></linearGradient></defs>
  <rect width="1000" height="700" fill="url(#b)"/><rect y="520" width="1000" height="180" fill="#151a20"/>
  <g opacity=".18" stroke="#fff"><path d="M0 120h1000M0 240h1000M0 360h1000M0 480h1000"/><path d="M120 0v700M260 0v700M400 0v700M540 0v700M680 0v700M820 0v700"/></g>
  <g transform="translate(135 105)" stroke="#d9dee4" stroke-width="16" stroke-linecap="round">
    <path d="M80 0v470M360 0v470M640 0v470"/>
    <path d="M80 90h230M80 180h270M80 270h240M80 360h290"/>
    <path d="M360 90h260M360 180h230M360 270h280M360 360h240"/>
    <path d="M640 90h210M640 180h250M640 270h220M640 360h260"/>
  </g>
  <g transform="translate(120 190)" stroke="url(#m)" stroke-width="20" stroke-linecap="round">
    <path d="M0 0h780M20 58h720M0 116h810M45 174h690M0 232h780M30 290h800"/>
  </g>
  <circle cx="830" cy="112" r="54" fill="#fc5413"/><text x="70" y="626" fill="#fff" font-family="Arial" font-size="42" font-weight="700">Консольное хранение длинномера</text>
</svg>
