<svg xmlns="http://www.w3.org/2000/svg" viewBox="0 0 1000 700" role="img" aria-label="Кассетная система хранения листового металла">
  <defs><linearGradient id="bg" x1="0" x2="1" y1="0" y2="1"><stop stop-color="#151a20"/><stop offset="1" stop-color="#323b46"/></linearGradient><linearGradient id="s" x1="0" x2="1"><stop stop-color="#eef2f5"/><stop offset=".5" stop-color="#8b96a2"/><stop offset="1" stop-color="#d9dee4"/></linearGradient></defs>
  <rect width="1000" height="700" fill="url(#bg)"/><rect y="545" width="1000" height="155" fill="#0f1317"/>
  <g transform="translate(120 90)">
    <rect x="0" y="0" width="760" height="470" rx="18" fill="#20262e" stroke="#89939e" stroke-width="10"/>
    <g fill="url(#s)">
      <rect x="60" y="58" width="640" height="28" rx="5"/><rect x="60" y="128" width="640" height="28" rx="5"/><rect x="60" y="198" width="640" height="28" rx="5"/><rect x="60" y="268" width="640" height="28" rx="5"/><rect x="60" y="338" width="640" height="28" rx="5"/>
    </g>
    <g fill="#fc5413"><rect x="95" y="92" width="480" height="22" rx="4"/><rect x="95" y="232" width="520" height="22" rx="4"/><rect x="95" y="372" width="430" height="22" rx="4"/></g>
  </g>
  <path d="M650 510l210-62v58l-210 62z" fill="#fc5413"/><path d="M642 508l210-62" stroke="#fff" stroke-width="12" opacity=".55"/>
  <text x="70" y="632" fill="#fff" font-family="Arial" font-size="40" font-weight="700">Кассетное хранение листа</text>
</svg>
