<svg xmlns="http://www.w3.org/2000/svg" viewBox="0 0 1400 900" role="img" aria-label="Промышленная система хранения металла">
  <defs>
    <linearGradient id="bg" x1="0" x2="1" y1="0" y2="1"><stop stop-color="#151a20"/><stop offset="1" stop-color="#303843"/></linearGradient>
    <linearGradient id="steel" x1="0" x2="1"><stop stop-color="#d9dee4"/><stop offset=".45" stop-color="#7d8894"/><stop offset="1" stop-color="#f4f6f8"/></linearGradient>
    <linearGradient id="orange" x1="0" x2="1"><stop stop-color="#fc5413"/><stop offset="1" stop-color="#ff8a4c"/></linearGradient>
    <filter id="shadow" x="-20%" y="-20%" width="140%" height="140%"><feDropShadow dx="0" dy="24" stdDeviation="22" flood-opacity=".35"/></filter>
  </defs>
  <rect width="1400" height="900" fill="url(#bg)"/>
  <path d="M0 680h1400v220H0z" fill="#101419"/>
  <g opacity=".18" stroke="#d8dde2"><path d="M0 120h1400M0 240h1400M0 360h1400M0 480h1400M0 600h1400"/><path d="M120 0v900M280 0v900M440 0v900M600 0v900M760 0v900M920 0v900M1080 0v900M1240 0v900"/></g>
  <g transform="translate(150 150)" filter="url(#shadow)">
    <rect x="0" y="0" width="18" height="560" fill="#8d98a4"/>
    <rect x="360" y="0" width="18" height="560" fill="#8d98a4"/>
    <rect x="720" y="0" width="18" height="560" fill="#8d98a4"/>
    <rect x="1080" y="0" width="18" height="560" fill="#8d98a4"/>
    <g fill="url(#steel)">
      <rect x="0" y="70" width="1098" height="22" rx="6"/><rect x="0" y="160" width="1098" height="22" rx="6"/><rect x="0" y="250" width="1098" height="22" rx="6"/><rect x="0" y="340" width="1098" height="22" rx="6"/><rect x="0" y="430" width="1098" height="22" rx="6"/>
    </g>
    <g fill="url(#orange)" opacity=".9">
      <rect x="40" y="98" width="280" height="34" rx="4"/><rect x="420" y="188" width="270" height="34" rx="4"/><rect x="780" y="278" width="260" height="34" rx="4"/><rect x="80" y="458" width="330" height="34" rx="4"/>
    </g>
  </g>
  <g transform="translate(815 638)">
    <rect x="0" y="20" width="260" height="90" rx="10" fill="#f4f6f8"/>
    <rect x="36" y="0" width="95" height="44" rx="6" fill="#fc5413"/>
    <circle cx="48" cy="120" r="24" fill="#101419"/><circle cx="210" cy="120" r="24" fill="#101419"/>
  </g>
  <text x="70" y="86" fill="#fff" font-family="Arial" font-size="34" font-weight="700">КБ Парус / metal storage system</text>
</svg>
