<svg xmlns="http://www.w3.org/2000/svg" viewBox="0 0 1000 700" role="img" aria-label="Выкатные кассеты для листового металла">
  <defs><linearGradient id="bg" x1="0" x2="1"><stop stop-color="#20262e"/><stop offset="1" stop-color="#111418"/></linearGradient><linearGradient id="rail" x1="0" x2="1"><stop stop-color="#fc5413"/><stop offset="1" stop-color="#ff9a61"/></linearGradient></defs>
  <rect width="1000" height="700" fill="url(#bg)"/><rect y="520" width="1000" height="180" fill="#101419"/>
  <g transform="translate(135 100)">
    <rect width="660" height="400" rx="16" fill="#2a3139" stroke="#98a2ad" stroke-width="10"/>
    <g fill="#cfd6dd"><rect x="45" y="60" width="570" height="20" rx="4"/><rect x="45" y="130" width="570" height="20" rx="4"/><rect x="45" y="200" width="570" height="20" rx="4"/><rect x="45" y="270" width="570" height="20" rx="4"/></g>
    <g transform="translate(250 315)"><rect x="0" y="0" width="520" height="52" rx="8" fill="url(#rail)"/><rect x="24" y="17" width="450" height="12" rx="6" fill="#fff" opacity=".55"/><circle cx="70" cy="66" r="22" fill="#0f1317"/><circle cx="438" cy="66" r="22" fill="#0f1317"/></g>
  </g>
  <path d="M725 140l95 54-95 54" fill="none" stroke="#fc5413" stroke-width="18" stroke-linecap="round" stroke-linejoin="round"/>
  <text x="70" y="632" fill="#fff" font-family="Arial" font-size="40" font-weight="700">Выкатные кассеты: доступ к каждой партии</text>
</svg>
